# xmcd CD database file
#
# Track frame offsets:
#	150
#	13995
#	41815
#	57432
#	70765
#	82817
#	92190
#	114155
#	133045
#	152255
#	160942
#	173530
#	189945
#	208975
#	228820
#	239417
#	251760
#	263575
#	285475
#
# Disc length: 4461 seconds
#
# Revision: 0
# Processed by: cddbd v1.4PL0 Copyright (c) Steve Scherf et al.
# Submitted via: CDex 1.40Release
#
DISCID=f7116b13
DTITLE=Memphis Slim - Blue This Evening
DYEAR=1960
DGENRE=Blues
TTITLE0=Pineton's Blues
TTITLE1=Blue This Evening
TTITLE2=Caught The Old Coon At Last
TTITLE3=We're Just Two Of The Same Old Kind
TTITLE4=Don't Think You're Smart
TTITLE5=I'm Going To Kansas City
TTITLE6=Got A Little Old Mama
TTITLE7=Rock Me Baby
TTITLE8=In The Evening
TTITLE9=Memphis Slim USA
TTITLE10=Chicago Boogie
TTITLE11=Sad and Lonesome
TTITLE12=Memphis Woman
TTITLE13=Bertha Mae
TTITLE14=Ain't Nobody's Business
TTITLE15=I Love You More And More
TTITLE16=Frisco Baby Blues
TTITLE17=Slow And Easy
TTITLE18=I Believe I'll Settle Down,Darling I Miss You,Roll'n Tumble
EXTD=YEAR: 1960 ID3G: 0
EXTT0=
EXTT1=
EXTT2=
EXTT3=
EXTT4=
EXTT5=
EXTT6=
EXTT7=
EXTT8=
EXTT9=
EXTT10=
EXTT11=
EXTT12=
EXTT13=
EXTT14=
EXTT15=
EXTT16=
EXTT17=
EXTT18=
PLAYORDER=
